Coordinates
version=1
nRows=19
nColumns=24
inDegrees=yes

Units are S.I. units (second, meters, Newtons, ...)
Angles are in degrees.

endheader
time	pelvis_tilt	pelvis_list	pelvis_rotation	pelvis_tx	pelvis_ty	pelvis_tz	hip_flexion_r	hip_adduction_r	hip_rotation_r	knee_angle_r	ankle_angle_r	subtalar_angle_r	mtp_angle_r	hip_flexion_l	hip_adduction_l	hip_rotation_l	knee_angle_l	ankle_angle_l	subtalar_angle_l	mtp_angle_l	lumbar_extension	lumbar_bending	lumbar_rotation
      1.00800000	     -0.64327990	     -0.15478697	      1.35087154	     -0.07135059	      1.05151043	      0.33124321	    -15.01018440	      3.30485369	     -5.03223146	     -7.20878964	     17.56709737	      4.04895687	      6.12930849	     24.38852697	      0.99096218	     -0.09319919	     -2.30111030	      5.36036375	      6.52238647	      5.91000087	    -19.42025704	      4.03546727	      2.97521153
      1.01216667	     -0.55302749	     -0.11316931	      1.26356535	     -0.06533626	      1.05074517	      0.33121979	    -15.19702126	      3.19609644	     -5.18989772	     -7.77134594	     17.81505099	      4.50388252	      6.23750688	     24.39261361	      1.09757691	      0.00313676	     -2.78231955	      5.25675552	      6.31918808	      5.93450450	    -19.48275362	      3.85746252	      2.97202254
      1.01633333	     -0.51866290	     -0.07894732	      1.17235524	     -0.05927145	      1.04991759	      0.33123582	    -15.33852681	      3.10316084	     -5.18129573	     -8.30461421	     17.95885670	      4.67931178	      6.32943552	     24.46924124	      1.19154150	      0.10480231	     -3.35251601	      5.15079762	      6.13463888	      5.96080785	    -19.48135401	      3.67916846	      2.94241754
      1.02050000	     -0.45208585	     -0.04161044	      1.09304393	     -0.05318073	      1.04920793	      0.33124076	    -15.52658325	      3.01452839	     -5.12928050	     -8.80557451	     17.94415669	      4.69832679	      6.35368518	     24.52461525	      1.28797621	      0.16060251	     -4.00236883	      4.99157792	      5.99939542	      5.96591721	    -19.51922839	      3.52588315	      2.92097800
      1.02466667	     -0.36324313	      0.03074844	      1.00245532	     -0.04704327	      1.04855011	      0.33123460	    -15.67398628	      2.85939678	     -5.32432460	     -9.45922806	     18.13385192	      5.19604163	      6.54407981	     24.51725171	      1.42014495	      0.31097938	     -4.62372711	      4.73402260	      5.65444570	      6.02312040	    -19.55684853	      3.29696252	      2.89743036
      1.02883333	     -0.31026721	      0.06937547	      0.91744919	     -0.04089026	      1.04788979	      0.33126439	    -15.82023927	      2.76327725	     -5.25121553	    -10.02078329	     18.08069394	      5.20042835	      6.57844820	     24.58755442	      1.50939027	      0.38726868	     -5.36601436	      4.52145831	      5.50760627	      6.03101641	    -19.58389336	      3.12032630	      2.86735305
      1.03300000	     -0.27993608	      0.13832932	      0.83249844	     -0.03465707	      1.04722101	      0.33123211	    -15.88007254	      2.60360783	     -5.43820269	    -10.73013340	     18.19406926	      5.67243429	      6.84964500	     24.64217395	      1.64010041	      0.59007949	     -6.06596314	      4.16014054	      5.05998354	      6.10946141	    -19.52510611	      2.89412765	      2.82633178
      1.03716667	     -0.23199565	      0.21012161	      0.72203911	     -0.02842523	      1.04665267	      0.33128849	    -15.95919131	      2.44496298	     -5.46350001	    -11.42899383	     18.18509040	      5.88351252	      7.11497295	     24.68145059	      1.75271310	      0.72559464	     -6.80697555	      3.81356024	      4.73077428	      6.18059105	    -19.52482303	      2.64578905	      2.76741135
      1.04133333	     -0.18125658	      0.25679146	      0.65574419	     -0.02217415	      1.04611977	      0.33123878	    -16.04564435	      2.32125125	     -5.51618551	    -12.10532170	     17.98599098	      5.99218399	     10.49914510	     24.72970041	      1.86070314	      0.95071449	     -7.59135128	      3.41031771	      4.28226280	      7.07647148	    -19.51331181	      2.46980784	      2.70840343
      1.04550000	     -0.13569927	      0.33513161	      0.54942854	     -0.01586795	      1.04564591	      0.33126366	    -16.08845859	      2.14341194	     -5.58198863	    -12.87290397	     17.90011085	      6.26455442	     10.55677308	     24.78986091	      1.97101893	      0.99758189	     -8.42130047	      3.03367222	      4.07070291	      7.07210687	    -19.49306834	      2.21306633	      2.67454306
      1.04966667	     -0.08730736	      0.40099527	      0.46499978	     -0.00956670	      1.04520807	      0.33122727	    -16.11281159	      1.97560842	     -5.69294425	    -13.68172272	     17.76670497	      6.57110778	     10.67066909	     24.84662935	      2.08082909	      1.13953969	     -9.26587418	      2.63968699	      3.71529434	      7.06769422	    -19.47534070	      1.99508532	      2.62452401
      1.05383333	     -0.05465136	      0.46956814	      0.37811180	     -0.00322644	      1.04480852	      0.33118422	    -16.10260482	      1.80028305	     -5.78570518	    -14.52389443	     17.58232361	      6.84207594	     10.83704800	     24.91745181	      2.18975041	      1.27517031	    -10.12304237	      2.23330056	      3.35539109	      7.06002797	    -19.43111551	      1.76475857	      2.56402398
      1.05800000	     -0.00222097	      0.54427728	      0.28676028	      0.00311679	      1.04449913	      0.33113420	    -16.08688036	      1.60830291	     -5.88937147	    -15.41347789	     17.34120009	      7.13430198	     11.04390251	     24.96593444	      2.29877399	      1.38752473	    -10.99328288	      1.84218335	      3.01000746	      7.04793665	    -19.41350462	      1.52978510	      2.50348881
      1.06216667	      0.05092995	      0.60414948	      0.21680850	      0.00944854	      1.04423802	      0.33101536	    -16.04987493	      1.43121068	     -6.00623153	    -16.33334865	     16.98535376	      7.31013814	     14.53433485	     25.01165858	      2.40618828	      1.57991119	    -11.86792779	      1.45727936	      2.56255397	      6.87973863	    -19.40091154	      1.33540782	      2.42499592
      1.06633333	      0.11111315	      0.68407501	      0.12060979	      0.01581490	      1.04404065	      0.33094155	    -15.98226541	      1.21347399	     -6.14118604	    -17.33829518	     16.69930683	      7.64960235	     14.61532390	     25.06107219	      2.50677373	      1.60839854	    -12.78273327	      1.15188633	      2.35761713	      6.86294762	    -19.39241589	      1.08339850	      2.37805007
      1.07050000	      0.18844018	      0.76044543	      0.02752970	      0.02216749	      1.04394026	      0.33082247	    -15.90441097	      0.98879374	     -6.29060868	    -18.38708873	     16.32140745	      8.00995156	     14.97641716	     25.06816712	      2.61369047	      1.72521283	    -13.65685526	      0.84961101	      1.99424860	      6.79850181	    -19.41012969	      0.85705373	      2.30005673
      1.07466667	      0.20966527	      0.83219720	     -0.06641007	      0.02856171	      1.04378828	      0.33070048	    -15.73207728	      0.76254037	     -6.42884399	    -19.50224710	     15.93052740	      8.30710643	     15.18120608	     25.15041605	      2.70298668	      1.74767885	    -14.57137737	      0.58908225	      1.79382724	      6.75834342	    -19.34009355	      0.62388764	      2.25303044
      1.07883333	      0.26759285	      0.91281735	     -0.15990381	      0.03493621	      1.04375766	      0.33054877	    -15.56506031	      0.51220082	     -6.59806787	    -20.67509556	     15.48840751	      8.67149963	     15.49500983	     25.17313328	      2.80452756	      1.79378083	    -15.45253383	      0.37076401	      1.54409803	      6.69570707	    -19.32295952	      0.38745043	      2.18800315
      1.08300000	      0.35221045	      1.01941511	     -0.26719104	      0.04132318	      1.04385325	      0.33042227	    -15.40473524	      0.22772805	     -6.72709710	    -21.86632552	     14.88140447	      8.89813892	     19.11821027	     25.12861875	      2.93200915	      1.87016794	    -16.26455351	      0.15882206	      1.18628536	      5.97674438	    -19.33699845	      0.10152398	      2.06803303
